<!-- icon666.com - MILLIONS vector ICONS FREE --><svg id="Layer_2" enable-background="new 0 0 200 200" viewBox="0 0 200 200" xmlns="http://www.w3.org/2000/svg"><path d="m164 20h-12v-4c0-2.209-1.791-4-4-4s-4 1.791-4 4v4h-88v-4c0-2.209-1.791-4-4-4s-4 1.791-4 4v4h-12c-13.234 0-24 10.766-24 24v120c0 13.234 10.766 24 24 24h128c13.234 0 24-10.766 24-24v-120c0-13.234-10.766-24-24-24zm-144 24c0-8.822 7.178-16 16-16h12v4.7c-4.653 1.653-8 6.087-8 11.3 0 6.617 5.383 12 12 12s12-5.383 12-12c0-5.213-3.347-9.647-8-11.3v-4.7h88v4.7c-4.653 1.653-8 6.087-8 11.3 0 6.617 5.383 12 12 12s12-5.383 12-12c0-5.213-3.347-9.647-8-11.3v-4.7h12c8.822 0 16 7.178 16 16v100c0 8.822-7.178 16-16 16h-128c-8.822 0-16-7.178-16-16zm36 0c0 2.206-1.794 4-4 4s-4-1.794-4-4c0-.731.212-1.408.556-1.999.693 1.19 1.968 1.999 3.444 1.999s2.751-.809 3.444-1.999c.344.591.556 1.268.556 1.999zm96 0c0 2.206-1.794 4-4 4s-4-1.794-4-4c0-.731.212-1.408.556-1.999.693 1.19 1.968 1.999 3.444 1.999s2.751-.809 3.444-1.999c.344.591.556 1.268.556 1.999zm12 136h-128c-8.822 0-16-7.178-16-16v-2.131c4.249 3.809 9.858 6.131 16 6.131h128c6.142 0 11.751-2.322 16-6.131v2.131c0 8.822-7.178 16-16 16z" fill="#000000" style="fill: rgb(255, 255, 255);"></path></svg>