<!-- icon666.com - MILLIONS vector ICONS FREE --><svg id="Layer_1" enable-background="new 0 0 24 24" viewBox="0 0 24 24" xmlns="http://www.w3.org/2000/svg"><path id="Temperature" clip-rule="evenodd" d="m4 5c0-2.8 2.2-5 5-5s5 2.2 5 5v9.7c.6 1 1 2.1 1 3.3 0 3.3-2.7 6-6 6s-6-2.7-6-6c0-1.2.4-2.4 1-3.3zm5-3c-1.7 0-3 1.3-3 3v10c0 .2-.1.4-.2.6-.5.7-.8 1.5-.8 2.4 0 2.2 1.8 4 4 4s4-1.8 4-4c0-.9-.3-1.7-.8-2.4-.1-.2-.2-.4-.2-.6v-10c0-1.7-1.3-3-3-3zm-1 9v5.3c-.6.3-1 1-1 1.7 0 1.1.9 2 2 2s2-.9 2-2c0-.7-.4-1.4-1-1.7v-5.3c0-.6-.4-1-1-1s-1 .4-1 1zm9-9c-.6 0-1 .4-1 1s.4 1 1 1h3c.6 0 1-.4 1-1s-.4-1-1-1zm0 4c-.6 0-1 .4-1 1s.4 1 1 1h1c.6 0 1-.4 1-1s-.4-1-1-1zm0 4c-.6 0-1 .4-1 1s.4 1 1 1h3c.6 0 1-.4 1-1s-.4-1-1-1zm0 4c-.6 0-1 .4-1 1s.4 1 1 1h1c.6 0 1-.4 1-1s-.4-1-1-1z" fill="rgb(0,0,0)" fill-rule="evenodd" style="fill: rgb(255, 255, 255);"></path></svg>