<!-- icon666.com - MILLIONS vector ICONS FREE --><svg version="1.1" id="Capa_1" xmlns="http://www.w3.org/2000/svg" xmlns:xlink="http://www.w3.org/1999/xlink" x="0px" y="0px" viewBox="0 0 511.552 511.552" style="enable-background:new 0 0 511.552 511.552; fill: #fff;" xml:space="preserve"><g><g><g><path d="M337.013,236.48c-4.651-3.648-11.328-2.773-14.976,1.877l-149.333,192c-3.627,4.629-2.795,11.349,1.856,14.955 c1.941,1.515,4.267,2.24,6.549,2.24c3.179,0,6.315-1.408,8.427-4.117l149.333-192 C342.496,246.784,341.643,240.085,337.013,236.48z"></path><path d="M298.443,362.219c-23.531,0-42.667,19.136-42.667,42.667c0,23.531,19.136,42.667,42.667,42.667 c23.531,0,42.667-19.136,42.667-42.667C341.109,381.355,321.973,362.219,298.443,362.219z M298.443,426.219 c-11.755,0-21.333-9.557-21.333-21.333s9.579-21.333,21.333-21.333c11.755,0,21.333,9.557,21.333,21.333 S310.197,426.219,298.443,426.219z"></path><path d="M213.109,319.552c23.531,0,42.667-19.136,42.667-42.667c0-23.531-19.136-42.667-42.667-42.667 c-23.531,0-42.667,19.136-42.667,42.667C170.443,300.416,189.579,319.552,213.109,319.552z M213.109,255.552 c11.755,0,21.333,9.557,21.333,21.333s-9.579,21.333-21.333,21.333c-11.755,0-21.333-9.557-21.333-21.333 S201.355,255.552,213.109,255.552z"></path><path d="M408.395,277.227L265.205,5.248c-3.691-6.997-15.189-6.997-18.88,0L103.157,277.227 c-24.427,46.379-23.829,101.739,1.579,148.096c26.752,48.811,76.971,80.789,134.357,85.547 c5.483,0.427,11.051,0.683,16.683,0.683s11.2-0.256,16.725-0.683c57.344-4.757,107.563-36.736,134.315-85.547 C432.224,378.965,432.821,323.605,408.395,277.227z M388.128,415.061c-23.317,42.496-67.179,70.379-117.355,74.539 c-9.856,0.789-20.139,0.789-29.931,0c-50.197-4.16-94.08-32.043-117.376-74.539c-22.336-40.661-22.827-87.253-1.451-127.893 l133.76-254.059l133.76,254.059C410.933,327.787,410.421,374.4,388.128,415.061z"></path></g></g></g></svg>