<!-- icon666.com - MILLIONS vector ICONS FREE --><svg version="1.1" id="Capa_1" xmlns="http://www.w3.org/2000/svg" xmlns:xlink="http://www.w3.org/1999/xlink" x="0px" y="0px" viewBox="0 0 512 512" style="enable-background:new 0 0 512 512;" xml:space="preserve"><g><g><path d="M256,0C195.036,0,136.25,22.098,90,61.544V46c0-8.284-6.716-15-15-15s-15,6.716-15,15v60c0,8.284,6.716,15,15,15h60 c8.284,0,15-6.716,15-15s-6.716-15-15-15h-32.978C143.915,52.004,198.89,30,256,30c126.458,0,226,103.228,226,226 c0,30.381-5.947,59.846-17.676,87.576c-3.227,7.63,0.343,16.431,7.973,19.658c7.629,3.227,16.43-0.342,19.658-7.972 C505.256,323.814,512,290.418,512,256C512,117.399,399.795,0,256,0z" fill="#000000" style="fill: rgb(255, 255, 255);"></path></g></g><g><g><path d="M437,391h-60c-8.284,0-15,6.716-15,15s6.716,14.9,15,14.9h32.978C368.085,459.896,313.11,482,256,482 C129.542,482,30,378.772,30,256c0-30.381,5.947-59.846,17.676-87.576c3.227-7.63-0.343-16.431-7.973-19.658 c-7.629-3.227-16.431,0.342-19.658,7.972C6.744,188.186,0,221.582,0,256c0,138.601,112.205,256,256,256 c60.964,0,119.75-22.098,166-61.544V466c0,8.284,6.716,15,15,15s15-6.716,15-15v-60C452,397.716,445.284,391,437,391z" fill="#000000" style="fill: rgb(255, 255, 255);"></path></g></g><g><g><path d="M389.146,185.159C377.21,130.81,328.156,91,271,91c-55.333,0-103.562,37.662-117.047,90.028 C102.545,178.728,60,220.21,60,271c0,49.626,40.369,90,89.989,90H362c49.626,0,90-40.374,90-90 C452,231.659,426.372,196.922,389.146,185.159z M362,331H149.989C116.911,331,90,304.084,90,271c0-43.603,47.042-77.642,95.346-50 c7.187,4.114,16.354,1.623,20.469-5.568c4.115-7.19,1.622-16.354-5.568-20.469c-5.543-3.172-11.187-5.796-16.881-7.894 C193.858,148.644,229.518,121,271,121c39.238,0,73.37,24.857,85.849,60.158c-9.56,0.54-19.214,2.552-28.697,6.086 c-7.763,2.893-11.71,11.531-8.817,19.294c2.894,7.763,11.535,11.71,19.294,8.817C381.939,199.214,422,230.537,422,271 C422,304.084,395.084,331,362,331z" fill="#000000" style="fill: rgb(255, 255, 255);"></path></g></g></svg>