<!-- icon666.com - MILLIONS vector ICONS FREE --><svg fill="none" viewBox="0 0 24 24" xmlns="http://www.w3.org/2000/svg"><g clip-rule="evenodd" fill="rgb(0,0,0)" fill-rule="evenodd"><path d="m2.38556 18.6433.00296-.0018.0167-.0098c.0157-.0091.04039-.0232.07347-.0418.0662-.037.16579-.0914.29394-.1573.25677-.1321.62565-.3092 1.06835-.4862.89675-.3587 2.04505-.6964 3.15895-.6964 1.62954 0 3.06747.6666 4.67967 1.4282.0201.0094.0402.0189.0603.0284 1.5477.7313 3.2667 1.5434 5.26 1.5434 1.3861 0 2.7378-.4123 3.7161-.8036.4948-.198.9071-.3959 1.1973-.5451.1452-.0747.2605-.1375.3408-.1825.0401-.0225.0716-.0405.0937-.0534l.0262-.0153.0077-.0046.0034-.002c.0002-.0001.0007-.0004-.3852-.6435l.3852.6435c.3552-.2131.4711-.6742.258-1.0294-.2131-.3551-.6736-.4703-1.0288-.2574l-.003.0018-.0167.0098c-.0156.0091-.0403.0232-.0734.0418-.0662.037-.1658.0914-.294.1573-.2567.1321-.6256.3092-1.0683.4862-.8968.3587-2.0451.6964-3.159.6964-1.6295 0-3.0674-.6666-4.6796-1.4282-.0201-.0094-.0402-.0189-.0603-.0284-1.5478-.7313-3.26672-1.5434-5.26007-1.5434-1.3861 0-2.73779.4123-3.71604.8036-.4948.198-.90717.3959-1.19728.5451-.14529.0747-.26054.1375-.34082.1825-.04016.0225-.07162.0405-.09377.0534l-.02618.0153-.00772.0046-.00249.0014-.0009.0006c-.00016.0001-.00067.0004.38507.6433l-.38507-.6433c-.35518.2131-.47103.6742-.25792 1.0294.21307.3551.6736.4703 1.02875.2574z" fill="rgb(0,0,0)" style="fill: rgb(255, 255, 255);"></path><path d="m2.38556 12.6433.00296-.0018.0167-.0098c.0157-.0091.04039-.0232.07347-.0418.0662-.037.16579-.0914.29394-.1573.25677-.1321.62565-.3092 1.06835-.4862.89675-.3587 2.04505-.6964 3.15895-.6964 1.62954 0 3.06747.6666 4.67967 1.4282.0201.0094.0402.0189.0603.0284 1.5477.7313 3.2667 1.5434 5.26 1.5434 1.3861 0 2.7378-.4123 3.7161-.8036.4948-.198.9071-.3959 1.1973-.5451.1452-.0747.2605-.1375.3408-.1825.0401-.0225.0716-.0405.0937-.0534l.0262-.0153.0077-.0046.0034-.002c.0002-.0001.0007-.0004-.3852-.6435l.3852.6435c.3552-.2131.4711-.6742.258-1.0294-.2131-.3551-.6736-.4703-1.0288-.2574l-.003.0018-.0167.0098c-.0156.0091-.0403.0232-.0734.0418-.0662.037-.1658.0914-.294.1573-.2567.1321-.6256.3092-1.0683.4862-.8968.3587-2.0451.6964-3.159.6964-1.6295 0-3.0674-.6666-4.6796-1.4282-.0201-.0094-.0402-.0189-.0603-.0284-1.5478-.7313-3.26672-1.5434-5.26007-1.5434-1.3861 0-2.73779.4123-3.71604.8036-.4948.198-.90717.3959-1.19728.5451-.14529.0747-.26054.1375-.34082.1825-.04016.0225-.07162.0405-.09377.0534l-.02618.0153-.00772.0046-.00249.0014-.0009.0006c-.00016.0001-.00067.0004.38507.6433l-.38507-.6433c-.35518.2131-.47103.6742-.25792 1.0294.21307.3551.6736.4703 1.02875.2574z" fill="rgb(0,0,0)" style="fill: rgb(255, 255, 255);"></path><path d="m2.38556 6.64327.00296-.00176.0167-.00976c.0157-.00912.04039-.0233.07347-.04182.0662-.03708.16579-.09143.29394-.15734.25677-.13205.62565-.30915 1.06835-.48623.89675-.3587 2.04505-.69636 3.15895-.69636 1.62954 0 3.06747.6666 4.67967 1.42815.0201.00948.0402.01898.0603.02849 1.5477.73123 3.2667 1.54336 5.26 1.54336 1.3861 0 2.7378-.41234 3.7161-.80364.4948-.19792.9071-.39582 1.1973-.54502.1452-.07472.2605-.13755.3408-.18251.0401-.02249.0716-.04053.0937-.05339l.0262-.01532.0077-.00457.0034-.00203c.0002-.00009.0007-.0004-.3852-.64352l.3852.64352c.3552-.21311.4711-.67421.258-1.02939-.2131-.3551-.6736-.47031-1.0288-.2574l-.003.00176-.0167.00976c-.0156.00912-.0403.0233-.0734.04182-.0662.03708-.1658.09143-.294.15734-.2567.13205-.6256.30915-1.0683.48623-.8968.3587-2.0451.69636-3.159.69636-1.6295 0-3.0674-.6666-4.6796-1.42815-.0201-.00948-.0402-.01898-.0603-.02849-1.5478-.73123-3.26672-1.54336-5.26007-1.54336-1.3861 0-2.73779.41234-3.71604.80364-.4948.19792-.90717.39582-1.19728.54502-.14529.07472-.26054.13755-.34082.18251-.04016.02249-.07162.04053-.09377.05339l-.02618.01532-.00772.00457-.00249.00149-.0009.00054c-.00016.00009-.00067.0004.38507.64329l-.38507-.64329c-.35518.21311-.47103.67421-.25792 1.02939.21307.3551.6736.47031 1.02875.2574z" fill="rgb(0,0,0)" style="fill: rgb(255, 255, 255);"></path></g></svg>