<!-- icon666.com - MILLIONS vector ICONS FREE --><svg version="1.1" id="Capa_1" xmlns="http://www.w3.org/2000/svg" xmlns:xlink="http://www.w3.org/1999/xlink" x="0px" y="0px" viewBox="0 0 471.197 471.197" style="enable-background:new 0 0 471.197 471.197;" xml:space="preserve"><g><g><path d="M296.589,0.301c-1.432-0.404-2.949-0.401-4.379,0.009c-4.247,1.218-6.703,5.648-5.485,9.895 c5.667,19.834,8.527,40.364,8.496,60.992c-0.141,123.653-100.347,223.859-224,224c-20.628,0.031-41.158-2.829-60.992-8.496 c-1.43-0.41-2.947-0.413-4.379-0.009c-4.252,1.201-6.726,5.621-5.525,9.873C29.752,399.741,123.931,470.97,231.221,471.197 c107.292-0.048,201.518-71.303,230.789-174.525C498.171,169.152,424.109,36.462,296.589,0.301z M305.693,442.476 c-116.678,41.121-244.599-20.129-285.72-136.807c16.833,3.688,34.016,5.542,51.248,5.528c132.486-0.15,239.85-107.514,240-240 c0.014-17.232-1.84-34.415-5.528-51.248c63.96,22.542,114.265,72.846,136.807,136.807 C483.621,273.433,422.371,401.354,305.693,442.476z" fill="#000000" style="fill: rgb(255, 255, 255);"></path></g></g></svg>