<!-- icon666.com - MILLIONS vector ICONS FREE --><svg style="fill: #fff;" viewBox="0 0 64 64" xmlns="http://www.w3.org/2000/svg"><path d="m3 24a.99943.99943 0 0 0 1 1h27.5c9.93846-.391 9.94365-14.60689-.00008-15a7.54592 7.54592 0 0 0 -7.49992 8 1.00008 1.00008 0 0 0 2 0 5.5542 5.5542 0 0 1 5.5-6c7.27549.25751 7.28066 10.74083-.00013 11h-27.49987a.99943.99943 0 0 0 -1 1z"></path><path d="m46 39h-39a1.00012 1.00012 0 0 0 .00006 2h38.99994a5.50685 5.50685 0 0 1 5.5 5.5c-.26137 7.28059-10.7411 7.27681-11-.00009v-.49991a1.0001 1.0001 0 0 0 -2 0c-.22654 10.219 14.58006 10.77364 15 .49982a7.50819 7.50819 0 0 0 -7.5-7.49982z"></path><path d="m54.5 14a7.54591 7.54591 0 0 0 -7.5 8 1.00008 1.00008 0 0 0 2 0c-.34751-7.55166 10.70657-8.11208 11-.49981a5.50684 5.50684 0 0 1 -5.5 5.49981h-32.5a1 1 0 0 0 0 2h32.5a7.5 7.5 0 0 0 0-15z"></path><path d="m2 28a.99943.99943 0 0 0 1 1h15a1 1 0 0 0 0-2h-15a.99943.99943 0 0 0 -1 1z"></path><path d="m27 32a.99943.99943 0 0 0 -1-1h-23a1 1 0 0 0 0 2h23a.99943.99943 0 0 0 1-1z"></path><path d="m42 33a1.0001 1.0001 0 0 0 0-2h-12a1.0001 1.0001 0 0 0 .00005 2z"></path><path d="m55 31h-9a1.0001 1.0001 0 0 0 0 2h9a1.0001 1.0001 0 0 0 0-2z"></path><path d="m45 36a.99943.99943 0 0 0 -1-1h-39a1 1 0 0 0 0 2h39a.99943.99943 0 0 0 1-1z"></path></svg>